<?xml version="1.0" encoding="UTF-8"?>
<svg id="Art" xmlns="http://www.w3.org/2000/svg" viewBox="0 0 312 312">
  <defs>
    <style>
      .cls-1 {
        fill: #141414;
      }
    </style>
  </defs>
  <path class="cls-1" d="M287,124h-53.75l38-38c9.37-9.37,9.37-24.57,0-33.94l-11.31-11.31c-9.37-9.37-24.57-9.37-33.94,0l-38,38V25c0-13.25-10.75-24-24-24h-16c-13.25,0-24,10.75-24,24v53.75l-38-38c-9.37-9.37-24.57-9.37-33.94,0l-11.31,11.31c-9.37,9.37-9.37,24.57,0,33.94l38,38H25c-13.25,0-24,10.75-24,24v16c0,13.25,10.75,24,24,24h53.75l-38,38c-9.37,9.37-9.37,24.57,0,33.94l11.31,11.31c9.37,9.37,24.57,9.37,33.94,0l38-38v53.75c0,13.25,10.75,24,24,24h16c13.25,0,24-10.75,24-24v-53.75l38,38c9.37,9.37,24.57,9.37,33.94,0l11.31-11.31c9.37-9.37,9.37-24.57,0-33.94l-38-38h53.75c13.25,0,24-10.75,24-24v-16c0-13.25-10.75-24-24-24Z"/>
</svg>