<?xml version="1.0" encoding="UTF-8"?>
<svg id="Art" xmlns="http://www.w3.org/2000/svg" viewBox="0 0 686 312">
  <defs>
    <style>
      .cls-1 {
        fill: #141414;
      }
    </style>
  </defs>
  <path class="cls-1" d="M672.93,1H388.06c-6.94,0-12.57,5.63-12.57,12.57V255.19c0,6.94,5.63,12.57,12.57,12.57h154.03v43.24h62.52c44.67,0,80.87-36.2,80.87-80.86V13.57c0-6.94-5.63-12.57-12.57-12.57Z"/>
  <path class="cls-1" d="M298.43,1H13.57C6.63,1,1,6.63,1,13.57V255.19c0,6.94,5.63,12.57,12.57,12.57H167.6v43.24h62.52c44.67,0,80.87-36.2,80.87-80.86V13.57c0-6.94-5.63-12.57-12.57-12.57Z"/>
</svg>