<?xml version="1.0" standalone="no"?>
<!DOCTYPE svg PUBLIC "-//W3C//DTD SVG 20010904//EN"
 "http://www.w3.org/TR/2001/REC-SVG-20010904/DTD/svg10.dtd">
<svg version="1.0" xmlns="http://www.w3.org/2000/svg"
 width="512.000000pt" height="512.000000pt" viewBox="0 0 512.000000 512.000000"
 preserveAspectRatio="xMidYMid meet">

<g transform="translate(0.000000,512.000000) scale(0.100000,-0.100000)"
fill="#000000" stroke="none">
<path d="M2985 4370 c-333 -92 -794 -402 -1372 -922 -368 -332 -1123 -1098
-1165 -1183 -57 -113 -2 -260 109 -293 103 -31 186 0 279 105 180 205 689 721
949 963 618 574 1077 901 1322 943 60 11 66 10 80 -8 22 -29 11 -116 -26 -209
-85 -211 -364 -637 -832 -1266 -280 -377 -405 -567 -495 -755 -149 -310 -129
-523 61 -667 147 -112 331 -111 556 2 206 104 414 269 996 788 193 172 355
300 436 343 l60 32 -7 -34 c-11 -57 -118 -266 -216 -424 -126 -201 -242 -432
-264 -523 -52 -211 24 -360 215 -423 60 -19 93 -24 174 -23 166 2 286 55 525
234 70 52 135 100 146 106 35 20 59 75 59 134 -1 73 -34 134 -99 177 -41 28
-57 33 -106 33 -82 0 -102 -10 -194 -97 -127 -120 -286 -241 -286 -218 0 15
118 237 188 351 183 303 262 493 269 654 12 243 -99 396 -315 433 -170 30
-405 -81 -715 -335 -67 -55 -246 -211 -398 -348 -404 -366 -536 -472 -663
-540 -63 -33 -96 -38 -96 -15 0 32 121 248 234 418 67 100 224 323 350 496
449 617 591 830 718 1076 213 414 220 680 23 881 -43 44 -84 74 -131 96 -64
30 -78 33 -184 35 -89 2 -131 -2 -185 -17z"/>
</g>
</svg>
